<?xml version="1.0" standalone="no"?><!DOCTYPE svg PUBLIC "-//W3C//DTD SVG 1.1//EN" "http://www.w3.org/Graphics/SVG/1.1/DTD/svg11.dtd"><svg t="1606401590009" class="icon" viewBox="0 0 1024 1024" version="1.1" xmlns="http://www.w3.org/2000/svg" p-id="1151" xmlns:xlink="http://www.w3.org/1999/xlink" width="200" height="200"><defs><style type="text/css"></style></defs><path d="M512 512m-512 0a512 512 0 1 0 1024 0 512 512 0 1 0-1024 0Z" fill="#F5222D" p-id="1152"></path><path d="M572.330667 512l120.704 120.661333a42.666667 42.666667 0 0 1-60.373334 60.373334L512 572.330667l-120.661333 120.704a42.666667 42.666667 0 0 1-60.373334-60.373334L451.669333 512 330.965333 391.338667a42.666667 42.666667 0 0 1 60.373334-60.373334L512 451.669333l120.661333-120.704a42.666667 42.666667 0 0 1 60.373334 60.373334L572.330667 512z" fill="#FFFFFF" p-id="1153"></path></svg>