<?xml version="1.0" encoding="utf-8"?>
<!-- Generator: Adobe Illustrator 21.0.0, SVG Export Plug-In . SVG Version: 6.00 Build 0)  -->
<svg width="288px" height="94px" viewBox="0 0 288 94" version="1.1" xmlns="http://www.w3.org/2000/svg" xmlns:xlink="http://www.w3.org/1999/xlink">
<style type="text/css">
	.st0{fill:none;stroke:#E0E0E0;stroke-width:6.048;stroke-linecap:round;stroke-miterlimit:10;}
	.st1{fill:none;stroke:#E0E0E0;stroke-width:6.3;stroke-linecap:round;stroke-miterlimit:10;stroke-dasharray:14.6569,14.6569;}
	.st2{enable-background:new    ;}
	.st3{fill:#212121;}
	.st4{fill:#F44336;}
	.st5{fill:#1565C0;}
</style>
<g>
	<g>
		<g>
			<line class="st0" x1="227.9" y1="22" x2="234.9" y2="37.6"/>
			<line class="st0" x1="223.6" y1="33.3" x2="239.2" y2="26.3"/>
		</g>
		<g>
			<line class="st0" x1="255.9" y1="32.6" x2="263" y2="48.2"/>
			<line class="st0" x1="251.7" y1="43.9" x2="267.3" y2="36.9"/>
		</g>
	</g>
	<path class="st0" d="M240.1,65l1.5,10.3c0.4,2.8,3.9,4.5,7.9,3.9s6.9-3.3,6.5-6l-1.5-10.3"/>
	<path class="st0" d="M263.3,59.3c-0.6,0.3-1.3,0.7-2,1s-1.3,0.6-2,0.8c-0.7,0.3-1.4,0.5-2.1,0.7s-1.4,0.4-2.1,0.6
		c-0.7,0.2-1.4,0.3-2.2,0.4c-0.7,0.1-1.4,0.2-2.2,0.3c-0.7,0.1-1.5,0.1-2.2,0.1s-1.5,0-2.2,0s-1.5-0.1-2.2-0.2
		c-0.7-0.1-1.5-0.2-2.2-0.3s-1.4-0.3-2.2-0.4c-0.7-0.2-1.4-0.4-2.1-0.6c-0.7-0.2-1.4-0.5-2.1-0.7c-0.7-0.3-1.4-0.5-2-0.8
		c-0.7-0.3-1.3-0.6-2-1c-0.6-0.3-1.3-0.7-1.9-1.1c-0.6-0.4-1.2-0.8-1.8-1.2s-1.2-0.9-1.7-1.3c-0.6-0.5-1.1-1-1.6-1.5s-1.1-1-1.5-1.6
		c-0.5-0.5-1-1.1-1.4-1.7c-0.5-0.6-0.9-1.2-1.3-1.7c-0.4-0.6-0.8-1.2-1.2-1.8s-0.7-1.3-1.1-1.9c-0.3-0.6-0.7-1.3-1-2s-0.6-1.3-0.8-2
		"/>
	<g>
		<ellipse transform="matrix(0.6994 -0.7147 0.7147 0.6994 38.9886 186.3232)" class="st1" cx="241" cy="46.8" rx="42" ry="42"/>
	</g>
</g>
<title>header</title>
<desc>Created with Sketch.</desc>
<g class="st2">
	<path class="st3" d="M90,39c-1.6,3.8-5,7.5-11.8,10c-0.5-1.1-1.9-2.7-2.8-3.5c4.9-1.8,7.8-4.1,9.4-6.5h-8.5
		c0.4,0.9,0.8,1.7,1.1,2.1c-6.3,5.4-7.4,6.4-8.1,7.4c-0.4-0.9-1.6-2.3-2.3-3c0.8-0.7,1.9-2,1.9-4.1V30h-5v-5h9v15.6l2.5-2.2
		c0.1,0.4,0.3,0.8,0.5,1.3V36h5.3c0,0-3.2-2.8-4.8-3.7l2.1-2.2c2,1,4.7,2.7,5.9,3.9l-1.3,2h3.1c0.4-2,0.4-3.4-0.3-4.6v-0.6l-0.9,2
		C84,31.6,81.4,30,79.4,29l1.8-2.2C83,27.6,87,30,87,30v-3h4v4.4c0.1,1.3-0.2,3.6-0.2,3.6h9.2v4H90z M72.2,22.5
		c-1.3-1.7-4.2-4.3-6.3-6.1l3-3c2.1,1.7,5.2,4.1,6.5,5.7L72.2,22.5z M93.5,30.2c0.4-1.1,0.8-2.7,1.2-4.2H77v-4h9v-2h-8v-4h8v-3h4v3
		h8v4h-8v2h6.2l0.7-0.1l3.1,0.6c-0.7,3-1.7,6.4-2.7,8.6L93.5,30.2z M92,40c3,1.8,7,4.8,8.9,6.8l-3,2.9c-1.7-2-5.5-5.1-8.7-7.2L92,40
		z"/>
	<path class="st3" d="M140,15v9h-5v-5h-24v5h-5V14l34.3,1H140z M129,41h-22v-4h22V41z M136.9,31c0-0.6-0.1,0.7-0.2,1.4
		c-0.9,9.5-1.8,13.5-3.3,15.1c-1.1,1.2-2.3,1.5-4.1,1.7c-1.4,0.2-3.9,0.1-6.5,0c-0.1-1.3-0.7-3.2-1.5-4.4c2.6,0.2,5.2,0.2,6.3,0.2
		c0.8,0,1.4-0.1,1.8-0.5c1-0.8,2.4-10.5,2.4-10.5h-19.4c1.1-3.8,2.3-9.8,3-14.5l4.5,0.4l-0.6,3.1H135v4h-15.5c-0.2,1-0.5,2-0.6,3
		L136.9,31L136.9,31L136.9,31z"/>
	<path class="st3" d="M156,32h5v4h-5v6.1l3.8-2c0.1,1.3,0.4,3.1,0.7,4.1c-6.5,3.7-7.7,4.4-8.5,5.2c-0.3-1.1-1.2-3-1.9-3.9
		c0.7-0.5,1.9-1.7,1.9-3.4V36h-5v-4h5v-4h-3v-3.2c-0.4,0.5-0.8,0.9-1.3,1.3c-0.3-0.9-1.3-3.4-2.1-4.4c2.4-2.2,4.6-5.6,5.8-9.1l4,1.2
		c-0.4,1-0.8,2-1.2,3.1h6.8v5h-9.7c-0.6,0.6-1.1,1.4-1.7,2H160v4h-4V32z M183,25.2V29h-22v-4h5v-4h-4v-4h4v-4h4v5h3v-5h4v5h5v4h-5v3
		h6L183,25.2L183,25.2z M164,31h16v18h-4v-1h-8v1h-5l1-17.4V31z M168,35v3h8v-3H168z M176,45v-3h-8v3H176z M169,25h4v-4h-4V25z"/>
	<path class="st3" d="M199.5,38.9c0.2,1.3,0.7,3.1,1.1,4c-6.4,4.4-7.5,5.3-8.2,6.2c-0.4-1.2-1.7-3.3-2.4-4.2c0.8-0.6,2-3.7,2-3.7V29
		h-5v-5h10v17L199.5,38.9z M195.2,22.7c-1.2-1.8-4.1-4.5-6.1-6.3l3.1-3c2.1,1.7,5,4.3,6.3,6L195.2,22.7z M214.7,40
		c1.8,2.6,5,4.7,9.3,5.7c-1,0.9-2.4,2.8-3,4c-4.4-1.3-7.5-3.9-9.6-7.4c-1.7,3.3-4.6,5.8-10,7.5c-0.4-1.1-1.6-2.9-2.6-3.8
		c5-1.4,7.6-3.4,8.8-7H200v-3h9.3c0.2-0.9,0.2-1.9,0.3-3H201v-4h21v4h-8.6c-0.1,0.8-0.2,1.7-0.3,3H224v3L214.7,40L214.7,40z M221,26
		h-20V14h20V26z M217,18h-11v4h11V18z"/>
</g>
<g>
	<path class="st4" d="M118,60h15v4h-10v5h8v4h-8v6h10v5h-15V60z"/>
	<path class="st4" d="M151.2,84l-4.9-9H143v9h-5V60h8.7c5.2,0,9.5,1.7,9.5,7.2c0,3.6-1.9,5.8-4.8,6.9l5.9,9.9H151.2z M143,71h3
		c2.9,0,4.6-1.3,4.6-3.7c0-2.4-1.7-3.3-4.6-3.3h-3V71z"/>
	<path class="st4" d="M173.2,84l-4.9-9H165v9h-5V60h8.7c5.2,0,9.5,1.7,9.5,7.2c0,3.6-1.9,5.8-4.8,6.9l5.9,9.9H173.2z M164,71h3
		c2.9,0,4.6-1.3,4.6-3.7c0-2.4-1.7-3.3-4.6-3.3h-3V71z"/>
	<path class="st4" d="M180.2,71.5c0-7.7,4.3-12.1,10.5-12.1s10.5,4.5,10.5,12.1s-4.3,12.3-10.5,12.3
		C184.5,83.9,180.2,79.2,180.2,71.5z M196.5,71.5c0-5.1-2.2-8.1-5.7-8.1s-5.7,3-5.7,8.1c0,5,2.2,8.3,5.7,8.3
		C194.2,79.8,196.5,76.6,196.5,71.5z"/>
	<path class="st4" d="M219.2,84l-4.9-9H211v9h-5V60h8.7c5.2,0,9.5,1.7,9.5,7.2c0,3.6-1.9,5.8-4.8,6.9l5.9,9.9H219.2z M211,71h3
		c2.9,0,4.6-1.3,4.6-3.7c0-2.4-1.7-3.3-4.6-3.3h-3V71z"/>
</g>
<g>
	<path class="st5" d="M64,59h5v24h-5V59z"/>
	<path class="st5" d="M80,57h3.1l-8,32H72L80,57z"/>
	<path class="st5" d="M85.3,71.2c0-7.7,4.3-12.1,10.5-12.1s10.5,4.5,10.5,12.1S102,83.5,95.8,83.5C89.6,83.5,85.3,78.8,85.3,71.2z
		 M101.6,71.2c0-5.1-2.2-8.1-5.7-8.1s-5.7,3-5.7,8.1c0,5,2.2,8.3,5.7,8.3C99.4,79.4,101.6,76.2,101.6,71.2z"/>
</g>
</svg>
