<?xml version="1.0" encoding="utf-8"?>
<!-- Generator: Adobe Illustrator 21.0.0, SVG Export Plug-In . SVG Version: 6.00 Build 0)  -->
<!-- <svg version="1.1" id="图层_1" xmlns="http://www.w3.org/2000/svg" xmlns:xlink="http://www.w3.org/1999/xlink" x="0px" y="0px" viewBox="0 0 288 94" style="enable-background:new 0 0 288 94;" xml:space="preserve"> -->
<svg width="288px" height="94px" viewBox="0 0 288 94" version="1.1" xmlns="http://www.w3.org/2000/svg" xmlns:xlink="http://www.w3.org/1999/xlink">
<style type="text/css">
	.st0{fill:#717171;}
	.st1{font-family:'Roboto-Bold';}
	.st2{font-size:16px;}
	.st3{enable-background:new    ;}
	.st4{fill:#212121;}
	.st5{fill:#F44336;}
	.st6{fill:#9E9E9E;}
	.st7{font-size:21.2489px;}
</style>
<title>header</title>
<desc>Created with Sketch.</desc>
<text transform="matrix(1 0 0 1 15.0004 29.1758)" class="st0 st1 st2"> </text>
<g class="st3">
	<path class="st4" d="M40.8,35.5c-1.6,3.9-5,7.7-11.8,10.3c-0.5-1.1-1.9-2.8-2.8-3.6c4.9-1.8,7.8-4.2,9.4-6.7h-8.5
		c0.4,0.9,0.8,1.7,1.1,2.2c-6.3,5.5-7.4,6.6-8.1,7.6c-0.4-0.9-1.6-2.4-2.3-3.1c0.8-0.7,1.9-2.1,1.9-4.2V25.4H15v-4.5h9.1v15l2.4-2.1
		c0.1,0.4,0.3,0.8,0.5,1.3v-3.6h5.3c-1.3-1.1-3.2-2.3-4.8-3.2l2.1-2.2c2,1,4.7,2.7,5.9,3.9l-1.3,1.5h3.1c0.4-1.5,0.4-2.9,0.4-4.1
		v-0.6l-1.6,2c-1.1-1.2-3.7-2.8-5.7-3.8l1.8-2.2c1.8,0.8,4.1,2.1,5.4,3.2v-2.8h4.5v4.2c0,1.3-0.1,2.6-0.3,4h9v4.1H40.8z M23.2,18.5
		c-1.3-1.7-4.2-4.3-6.3-6.1l3-3c2.1,1.7,5.2,4.1,6.5,5.7L23.2,18.5z M44.9,26.3c0.4-1.1,0.8-2.6,1.2-4.1H27.8v-3.9h9.1v-2.4h-7.7
		v-3.9h7.7v-3h4.6v3h7.7v3.9h-7.7v2.4h6l0.7-0.1l3,0.6c-0.7,2.9-1.7,6.2-2.6,8.4L44.9,26.3z M43,36c3,1.8,7,4.8,8.9,6.8l-3,2.9
		c-1.7-2-5.5-5.1-8.7-7.2L43,36z"/>
	<path class="st4" d="M91.3,10.7v8.9h-4.9V15H61.9v4.5h-4.6v-8.9H91.3z M79.9,37.5H58.1v-4.3h21.8V37.5z M87.9,26.4
		c0,0-0.1,1.3-0.2,2c-0.9,9.5-1.8,13.5-3.3,15.1c-1.1,1.2-2.3,1.5-4.1,1.7c-1.4,0.2-3.9,0.1-6.5,0c-0.1-1.3-0.7-3.2-1.5-4.4
		c2.6,0.2,5.2,0.2,6.3,0.2c0.8,0,1.4-0.1,1.8-0.5c1-0.8,1.8-3.9,2.4-10.1H62.6c1.1-3.9,2.4-10.2,3.1-15l4.7,0.4l-0.6,3.2h16.2v4h-17
		c-0.2,1.1-0.5,2.2-0.7,3.3H87.9z"/>
	<path class="st4" d="M106.9,28h4.8v4.2h-4.8v6.1l4.1-2c0.1,1.3,0.4,3.1,0.7,4.1c-7,3.7-8.3,4.4-9.1,5.2c-0.3-1.1-1.3-3-2-3.9
		c0.8-0.5,2-1.7,2-3.4v-6h-4.8V28h4.8v-3.9h-2.8V21c-0.4,0.5-0.8,0.9-1.3,1.3c-0.3-0.9-1.3-3.3-2-4.3c2.3-2.2,4.4-5.5,5.6-8.9
		l3.9,1.2c-0.4,1-0.8,2-1.2,3h6.6v4.4h-9.1c-0.6,0.9-1.1,1.7-1.7,2.4H111v4.2h-4.1V28z M133.5,21.2v4.2h-21.6v-4.2h4.4v-3.7h-3.5
		v-4.1h3.5V8.9h4.2v4.6h3.9V8.9h4.2v4.6h3.9v4.1h-3.9v3.7H133.5z M114.3,27.6h17v17.7h-4.4v-1.2h-8.3v1.4h-4.2V27.6z M118.5,31.4V34
		h8.3v-2.6H118.5z M126.8,40.4v-2.7h-8.3v2.7H126.8z M120.4,21.2h3.9v-3.7h-3.9V21.2z"/>
	<path class="st4" d="M150.5,34.9c0.2,1.3,0.7,3.1,1.1,4c-6.4,4.4-7.5,5.3-8.2,6.2c-0.4-1.2-1.7-3.3-2.4-4.2
		c0.8-0.6,1.9-1.9,1.9-3.7v-12h-5v-4.5h9.5V37L150.5,34.9z M146.2,18.7c-1.2-1.8-4.1-4.5-6.1-6.3l3.1-3c2.1,1.7,5,4.3,6.3,6
		L146.2,18.7z M165.7,35.7c1.8,2.9,5,5,9.3,6c-1,0.9-2.4,2.8-3,4c-4.4-1.3-7.5-3.9-9.6-7.4c-1.7,3.3-4.6,5.8-10,7.5
		c-0.4-1.1-1.6-2.9-2.6-3.8c5-1.4,7.6-3.4,8.8-6.2h-7.9v-4.1h9c0.2-0.9,0.2-1.8,0.3-2.9h-8.2v-4.1h21.2v4.1h-8.6
		c-0.1,1-0.2,1.9-0.3,2.9h10.3v4.1H165.7z M172.2,22.2h-19.5V10.6h19.5V22.2z M167.6,14.6H157v3.6h10.6V14.6z"/>
</g>
<g>
	<g>
		<path class="st5" d="M69.3,64.8h14.5v3.9H74v5.4h8.3v4H74v6.3h10.1v4H69.3V64.8z"/>
		<path class="st5" d="M101.7,88.4l-4.8-8.9h-3.3v8.9h-4.7V64.8h8.2c4.9,0,8.9,1.7,8.9,7.1c0,3.5-1.8,5.7-4.5,6.8l5.5,9.7H101.7z
			 M93.6,75.8h3.1c3,0,4.7-1.3,4.7-3.8c0-2.5-1.7-3.4-4.7-3.4h-3.1V75.8z"/>
		<path class="st5" d="M123.5,88.4l-4.8-8.9h-3.3v8.9h-4.7V64.8h8.2c4.9,0,8.9,1.7,8.9,7.1c0,3.5-1.8,5.7-4.5,6.8l5.5,9.7H123.5z
			 M115.3,75.8h3.1c3,0,4.7-1.3,4.7-3.8c0-2.5-1.7-3.4-4.7-3.4h-3.1V75.8z"/>
		<path class="st5" d="M131.2,76.5c0-7.7,4.3-12.1,10.5-12.1c6.2,0,10.5,4.5,10.5,12.1c0,7.6-4.3,12.3-10.5,12.3
			C135.5,88.9,131.2,84.2,131.2,76.5z M147.5,76.5c0-5.1-2.2-8.1-5.7-8.1c-3.5,0-5.7,3-5.7,8.1c0,5,2.2,8.3,5.7,8.3
			C145.2,84.8,147.5,81.6,147.5,76.5z"/>
		<path class="st5" d="M169.7,88.4l-4.8-8.9h-3.3v8.9h-4.7V64.8h8.2c4.9,0,8.9,1.7,8.9,7.1c0,3.5-1.8,5.7-4.5,6.8l5.5,9.7H169.7z
			 M161.6,75.8h3.1c3,0,4.7-1.3,4.7-3.8c0-2.5-1.7-3.4-4.7-3.4h-3.1V75.8z"/>
	</g>
	<g>
		<path class="st6" d="M15,64.5h4.7v23.6H15V64.5z"/>
		<path class="st6" d="M31,62.4h3.1l-7.9,31.5h-3.1L31,62.4z"/>
		<path class="st6" d="M36.3,76.2c0-7.7,4.3-12.1,10.5-12.1c6.2,0,10.5,4.5,10.5,12.1c0,7.6-4.3,12.3-10.5,12.3
			C40.6,88.5,36.3,83.8,36.3,76.2z M52.6,76.2c0-5.1-2.2-8.1-5.7-8.1c-3.5,0-5.7,3-5.7,8.1c0,5,2.2,8.3,5.7,8.3
			C50.4,84.4,52.6,81.2,52.6,76.2z"/>
		<text transform="matrix(1 0 0 1 54.1323 77.5732)" class="st6 st1 st7"> </text>
	</g>
</g>
<g>
	<g>
		<g>
			<g>
				<path class="st6" d="M229.6,42.9c-1,0-2-0.6-2.4-1.6l-6.4-13.8c-0.6-1.3,0-2.9,1.3-3.6c1.3-0.6,2.9,0,3.6,1.3l6.4,13.8
					c0.6,1.3,0,2.9-1.3,3.6C230.4,42.9,230,42.9,229.6,42.9z"/>
			</g>
			<g>
				<path class="st6" d="M219.5,39.2c-1,0-2-0.6-2.4-1.6c-0.6-1.3,0-2.9,1.3-3.6l13.8-6.4c1.3-0.6,2.9,0,3.6,1.3
					c0.6,1.3,0,2.9-1.3,3.6L220.6,39C220.3,39.2,219.9,39.2,219.5,39.2z"/>
			</g>
		</g>
		<g>
			<g>
				<path class="st6" d="M254.6,52.1c-1,0-2-0.6-2.4-1.6l-6.4-13.8c-0.6-1.3,0-2.9,1.3-3.6c1.3-0.6,2.9,0,3.6,1.3l6.4,13.8
					c0.6,1.3,0,2.9-1.3,3.6C255.4,52,255,52.1,254.6,52.1z"/>
			</g>
			<g>
				<path class="st6" d="M244.5,48.4c-1,0-2-0.6-2.4-1.6c-0.6-1.3,0-2.9,1.3-3.6l13.8-6.4c1.3-0.6,2.9,0,3.6,1.3
					c0.6,1.3,0,2.9-1.3,3.6l-13.8,6.4C245.3,48.3,244.9,48.4,244.5,48.4z"/>
			</g>
		</g>
	</g>
	<g>
		<g>
			<path class="st6" d="M243.6,80.1c-1.5,0-2.9-0.5-4.2-1.4c-1.5-1.1-2.5-2.8-2.8-4.6l-1.4-9.2c-0.2-1.4,0.7-2.8,2.2-3
				c1.4-0.2,2.8,0.7,3,2.2l1.4,9.2c0.1,0.5,0.3,0.9,0.7,1.2c0.4,0.3,0.9,0.4,1.4,0.3c1-0.2,1.7-1.1,1.6-2.1l-1.4-9.2
				c-0.2-1.4,0.7-2.8,2.2-3c1.4-0.2,2.8,0.7,3,2.2l1.4,9.2c0.3,1.9-0.2,3.7-1.3,5.3c-1.1,1.5-2.8,2.5-4.6,2.8
				C244.4,80.1,244,80.1,243.6,80.1z"/>
		</g>
		<g>
			<path class="st6" d="M240.5,66c-0.2,0-0.5,0-0.7,0c-0.7,0-1.4-0.1-2.1-0.1c-0.7-0.1-1.4-0.2-2.1-0.3c-0.7-0.1-1.4-0.2-2.1-0.4
				c-0.7-0.2-1.4-0.3-2.1-0.5c-0.7-0.2-1.4-0.4-2-0.7c-0.7-0.2-1.3-0.5-2-0.8c-0.7-0.3-1.3-0.6-1.9-0.9c-0.6-0.3-1.3-0.7-1.9-1
				c-0.6-0.4-1.2-0.8-1.8-1.2c-0.6-0.4-1.1-0.8-1.7-1.3c-0.6-0.4-1.1-0.9-1.6-1.4c-0.5-0.5-1-1-1.5-1.5c-0.5-0.5-1-1-1.4-1.6
				c-0.5-0.5-0.9-1.1-1.3-1.7c-0.4-0.6-0.8-1.2-1.2-1.8c-0.4-0.6-0.7-1.2-1.1-1.8c-0.3-0.6-0.7-1.3-1-1.9c-0.3-0.6-0.6-1.3-0.8-2
				c-0.5-1.4,0.1-2.9,1.5-3.5c1.4-0.5,2.9,0.1,3.5,1.5c0.2,0.6,0.5,1.1,0.7,1.6c0.3,0.5,0.5,1.1,0.8,1.6c0.3,0.5,0.6,1,0.9,1.5
				c0.3,0.5,0.7,1,1,1.5c0.3,0.5,0.7,0.9,1.1,1.4c0.4,0.5,0.8,0.9,1.2,1.3c0.4,0.4,0.8,0.8,1.3,1.2c0.4,0.4,0.9,0.8,1.3,1.2
				c0.5,0.4,0.9,0.7,1.4,1.1c0.5,0.3,1,0.7,1.5,1c0.5,0.3,1,0.6,1.5,0.9c0.5,0.3,1.1,0.5,1.6,0.8c0.5,0.2,1.1,0.5,1.7,0.7
				c0.6,0.2,1.1,0.4,1.7,0.6c0.6,0.2,1.1,0.3,1.7,0.4c0.6,0.1,1.2,0.2,1.7,0.3c0.6,0.1,1.2,0.2,1.8,0.2c0.6,0.1,1.2,0.1,1.8,0.1
				c0.6,0,1.2,0,1.8,0c0.6,0,1.2-0.1,1.8-0.1c0.6-0.1,1.2-0.1,1.8-0.3c0.6-0.1,1.2-0.2,1.7-0.4c0.6-0.1,1.2-0.3,1.7-0.5
				c0.6-0.2,1.1-0.4,1.7-0.6c0.6-0.2,1.1-0.5,1.6-0.7c0.5-0.2,1.1-0.5,1.6-0.8c1.3-0.7,2.9-0.2,3.6,1.1c0.7,1.3,0.2,2.9-1.1,3.6
				c-0.6,0.3-1.3,0.7-1.9,1c-0.6,0.3-1.3,0.6-2,0.8c-0.7,0.3-1.3,0.5-2,0.7c-0.7,0.2-1.4,0.4-2.1,0.6c-0.7,0.2-1.4,0.3-2.1,0.4
				c-0.7,0.1-1.4,0.2-2.1,0.3c-0.7,0.1-1.4,0.1-2.1,0.2C241.5,66,241,66,240.5,66z"/>
		</g>
	</g>
	<g>
		<path class="st6" d="M234.9,88.9c-3.2,0-6.4-0.4-9.4-1.1c-1.5-0.4-2.4-1.9-2.1-3.4c0.4-1.5,1.9-2.4,3.4-2.1c3.9,0.9,8,1.2,12,0.8
			c1.5-0.2,2.9,0.9,3.1,2.5c0.2,1.5-0.9,2.9-2.5,3.1C237.9,88.8,236.4,88.9,234.9,88.9z M251.5,85c-1,0-2-0.6-2.5-1.6
			c-0.7-1.4-0.1-3.1,1.3-3.8c3.6-1.8,6.8-4.2,9.6-7.1l0.1-0.1c1.1-1.1,2.8-1.1,4-0.1c1.1,1.1,1.1,2.8,0.1,4l-0.1,0.1
			c-3.2,3.4-7,6.2-11.2,8.3C252.4,84.9,252,85,251.5,85z M214.3,82.6c-0.5,0-1.1-0.2-1.5-0.5c-1.9-1.3-3.8-2.8-5.5-4.4
			c-1.7-1.6-3.2-3.4-4.6-5.2c-0.9-1.2-0.7-3,0.6-3.9c1.2-0.9,3-0.7,3.9,0.6c1.2,1.6,2.5,3.1,4,4.5c1.5,1.4,3.1,2.7,4.7,3.8
			c1.3,0.9,1.6,2.6,0.8,3.9C216.1,82.2,215.2,82.6,214.3,82.6z M269.2,66.4c-0.4,0-0.7-0.1-1.1-0.2c-1.4-0.6-2.1-2.3-1.5-3.7
			c1.6-3.7,2.5-7.6,2.8-11.7c0.1-1.5,1.4-2.7,3-2.6c1.5,0.1,2.7,1.4,2.6,3c-0.3,4.7-1.4,9.3-3.2,13.5
			C271.3,65.8,270.3,66.4,269.2,66.4z M199.1,62.1c-1.2,0-2.3-0.8-2.7-2c-1.1-3.7-1.6-7.5-1.6-11.3c0-0.8,0-1.7,0.1-2.5
			c0.1-1.5,1.4-2.7,3-2.6c1.5,0.1,2.7,1.4,2.6,3c0,0.7-0.1,1.4-0.1,2.1c0,3.3,0.5,6.6,1.4,9.8c0.4,1.5-0.4,3-1.9,3.5
			C199.7,62.1,199.4,62.1,199.1,62.1z M270.7,40.9c-1.2,0-2.3-0.8-2.7-2c-1.1-3.9-2.9-7.5-5.3-10.7c-0.9-1.2-0.7-3,0.6-3.9
			c1.2-0.9,3-0.7,3.9,0.6c2.8,3.8,4.9,8,6.2,12.5c0.4,1.5-0.4,3-1.9,3.5C271.3,40.9,271,40.9,270.7,40.9z M200.7,36.6
			c-0.4,0-0.8-0.1-1.1-0.2c-1.4-0.6-2.1-2.3-1.4-3.7c1.9-4.3,4.5-8.2,7.7-11.6c1.1-1.1,2.8-1.2,4-0.1c1.1,1.1,1.2,2.8,0.1,4
			c-2.8,2.9-5,6.3-6.6,10C202.8,36,201.8,36.6,200.7,36.6z M255.6,20.4c-0.5,0-1.1-0.2-1.5-0.5c-3.4-2.2-7.1-3.8-11-4.8
			c-1.5-0.4-2.4-1.9-2.1-3.4c0.4-1.5,1.9-2.4,3.4-2.1c4.6,1.1,8.9,3,12.8,5.6c1.3,0.9,1.6,2.6,0.8,3.9
			C257.4,20,256.5,20.4,255.6,20.4z M218.3,18.1c-1,0-2-0.6-2.5-1.6c-0.7-1.4-0.1-3.1,1.3-3.8c4.2-2.1,8.7-3.4,13.4-3.9
			c1.5-0.2,2.9,0.9,3.1,2.5c0.2,1.5-0.9,2.9-2.5,3.1c-4,0.5-7.9,1.6-11.5,3.4C219.2,18,218.7,18.1,218.3,18.1z"/>
	</g>
</g>
</svg>
